<?xml version="1.0" standalone="no"?>
<!DOCTYPE svg PUBLIC "-//W3C//DTD SVG 20010904//EN"
 "http://www.w3.org/TR/2001/REC-SVG-20010904/DTD/svg10.dtd">
<svg version="1.0" xmlns="http://www.w3.org/2000/svg"
 width="1929.000000pt" height="414.000000pt" viewBox="0 0 1929.000000 414.000000"
 preserveAspectRatio="xMidYMid meet">

<g transform="translate(0.000000,414.000000) scale(0.100000,-0.100000)"
fill="#000000" stroke="none">
<path d="M18881 3598 c-78 -53 -100 -129 -59 -208 25 -48 89 -90 138 -90 37 0
110 40 134 73 16 22 21 44 21 93 0 62 -1 65 -42 106 -38 38 -48 42 -100 46
-49 3 -64 0 -92 -20z m143 -44 c20 -19 21 -58 2 -77 -8 -8 -11 -18 -6 -23 5
-5 11 -30 15 -56 7 -43 5 -48 -12 -48 -16 0 -22 10 -29 43 -8 36 -13 42 -36
45 -27 3 -28 2 -28 -42 0 -39 -3 -46 -20 -46 -19 0 -20 7 -20 110 l0 110 59 0
c41 0 65 -5 75 -16z"/>
<path d="M18930 3510 c0 -26 3 -30 29 -30 16 0 31 6 35 15 7 18 -19 45 -45 45
-14 0 -19 -7 -19 -30z"/>
<path d="M7723 1541 c-72 -3 -134 -8 -136 -11 -3 -3 95 -5 218 -5 123 0 216 3
207 6 -32 12 -157 16 -289 10z"/>
<path d="M8043 1523 c7 -11 107 -37 114 -29 2 2 -16 8 -40 15 -25 6 -52 14
-62 18 -12 4 -16 3 -12 -4z"/>
<path d="M7500 1510 c-20 -6 -21 -8 -5 -8 11 0 34 4 50 8 27 7 27 8 5 8 -14 0
-36 -4 -50 -8z"/>
<path d="M7438 1493 c7 -3 16 -2 19 1 4 3 -2 6 -13 5 -11 0 -14 -3 -6 -6z"/>
<path d="M7375 1483 c-11 -3 -24 -10 -30 -15 -12 -13 35 0 50 13 5 5 7 8 5 8
-3 -1 -14 -3 -25 -6z"/>
<path d="M8210 1460 c24 -18 25 -22 25 -142 0 -68 -3 -139 -8 -158 -4 -20 -4
-30 1 -25 5 6 14 55 21 110 16 138 -6 236 -52 235 -7 0 -1 -9 13 -20z"/>
<path d="M7275 1440 c-3 -6 1 -7 9 -4 18 7 21 14 7 14 -6 0 -13 -4 -16 -10z"/>
<path d="M7210 1415 c-7 -8 -20 -15 -30 -15 -10 0 -20 -7 -24 -15 -4 -11 8 -8
44 10 28 14 50 28 50 30 0 11 -28 4 -40 -10z"/>
<path d="M1982 1411 c-8 -5 0 -8 23 -9 19 -1 44 -6 55 -12 11 -6 20 -8 20 -6
0 8 -57 36 -72 36 -7 0 -19 -4 -26 -9z"/>
<path d="M1962 1370 c-2 -26 16 -52 58 -85 14 -11 9 -2 -12 20 -20 22 -38 51
-41 65 l-4 25 -1 -25z"/>
<path d="M2140 1350 c14 -11 29 -20 34 -20 5 0 -3 9 -17 20 -14 11 -29 20 -34
20 -4 0 3 -9 17 -20z"/>
<path d="M7110 1349 c0 -5 5 -7 10 -4 6 3 10 8 10 11 0 2 -4 4 -10 4 -5 0 -10
-5 -10 -11z"/>
<path d="M2190 1326 c0 -3 9 -10 20 -16 11 -6 20 -8 20 -6 0 3 -9 10 -20 16
-11 6 -20 8 -20 6z"/>
<path d="M7082 1305 c0 -16 2 -22 5 -12 2 9 2 23 0 30 -3 6 -5 -1 -5 -18z"/>
<path d="M7553 1303 c37 -2 97 -2 135 0 37 2 6 3 -68 3 -74 0 -105 -1 -67 -3z"/>
<path d="M7766 1300 c5 -5 32 -11 59 -14 50 -5 42 -1 -29 14 -21 5 -34 5 -30
0z"/>
<path d="M2240 1290 c0 -5 4 -10 9 -10 5 0 18 -3 28 -6 16 -6 16 -5 -2 9 -23
19 -35 21 -35 7z"/>
<path d="M7295 1290 c-22 -4 -35 -8 -30 -9 20 -5 111 1 145 9 32 7 30 8 -20 8
-30 -1 -73 -4 -95 -8z"/>
<path d="M7183 1273 c15 -2 37 -2 50 0 12 2 0 4 -28 4 -27 0 -38 -2 -22 -4z"/>
<path d="M7880 1276 c0 -3 9 -10 20 -16 11 -6 20 -8 20 -6 0 3 -9 10 -20 16
-11 6 -20 8 -20 6z"/>
<path d="M2050 1268 c0 -9 62 -70 66 -65 2 2 -12 19 -31 37 -19 19 -35 31 -35
28z"/>
<path d="M2307 1259 c7 -7 15 -10 18 -7 3 3 -2 9 -12 12 -14 6 -15 5 -6 -5z"/>
<path d="M7113 1263 c9 -2 23 -2 30 0 6 3 -1 5 -18 5 -16 0 -22 -2 -12 -5z"/>
<path d="M2340 1246 c0 -3 9 -10 20 -16 11 -6 20 -8 20 -6 0 3 -9 10 -20 16
-11 6 -20 8 -20 6z"/>
<path d="M7930 1249 c0 -3 7 -21 16 -39 16 -31 16 -94 0 -200 -5 -32 -5 -33 5
-10 6 14 13 62 16 107 5 72 3 85 -15 115 -12 18 -22 30 -22 27z"/>
<path d="M2390 1223 c0 -4 11 -13 25 -20 14 -6 23 -7 19 -2 -8 13 -44 31 -44
22z"/>
<path d="M2180 1148 c24 -26 53 -49 65 -52 23 -6 28 -11 -66 63 l-44 35 45
-46z"/>
<path d="M2520 1155 c0 -6 77 -40 110 -49 14 -4 -1 7 -33 23 -54 29 -77 37
-77 26z"/>
<path d="M8211 1104 c0 -11 3 -14 6 -6 3 7 2 16 -1 19 -3 4 -6 -2 -5 -13z"/>
<path d="M2660 1093 c0 -6 93 -44 97 -39 3 2 -5 7 -16 11 -12 3 -21 10 -21 15
0 4 -13 10 -30 12 -16 3 -30 3 -30 1z"/>
<path d="M2270 1077 c0 -3 12 -12 26 -22 15 -9 23 -12 20 -6 -7 11 -46 35 -46
28z"/>
<path d="M7585 1071 c-4 -7 6 -11 26 -11 22 0 42 -9 61 -27 15 -15 28 -24 28
-20 0 12 -51 57 -65 57 -7 0 -20 3 -28 6 -8 3 -18 1 -22 -5z"/>
<path d="M2780 1040 c8 -5 20 -10 25 -10 6 0 3 5 -5 10 -8 5 -19 10 -25 10 -5
0 -3 -5 5 -10z"/>
<path d="M7440 1024 c-35 -13 -69 -29 -75 -35 -10 -10 116 35 145 51 26 16 -2
9 -70 -16z"/>
<path d="M2347 1015 c10 -13 26 -27 35 -30 10 -4 61 -35 113 -71 52 -35 95
-61 95 -57 0 5 -25 24 -55 43 -71 45 -155 104 -177 124 -26 24 -31 19 -11 -9z"/>
<path d="M2820 1027 c0 -3 15 -10 32 -16 18 -6 28 -7 23 -2 -12 10 -55 25 -55
18z"/>
<path d="M2900 996 c0 -2 9 -6 20 -9 11 -3 18 -1 14 4 -5 9 -34 13 -34 5z"/>
<path d="M7690 987 c0 -9 -18 -36 -40 -59 -21 -23 -37 -44 -35 -47 7 -6 74 70
81 92 3 10 3 21 0 24 -3 4 -6 -1 -6 -10z"/>
<path d="M7335 980 c-3 -5 -1 -10 4 -10 6 0 11 5 11 10 0 6 -2 10 -4 10 -3 0
-8 -4 -11 -10z"/>
<path d="M8180 971 c0 -25 6 -27 13 -6 4 8 2 17 -3 20 -6 4 -10 -3 -10 -14z"/>
<path d="M7932 950 c0 -14 2 -19 5 -12 2 6 2 18 0 25 -3 6 -5 1 -5 -13z"/>
<path d="M3000 956 c0 -2 9 -6 20 -9 11 -3 18 -1 14 4 -5 9 -34 13 -34 5z"/>
<path d="M3050 940 c0 -6 7 -10 15 -10 8 0 15 2 15 4 0 2 -7 6 -15 10 -8 3
-15 1 -15 -4z"/>
<path d="M7195 930 c-8 -13 15 -13 35 0 12 8 11 10 -7 10 -12 0 -25 -4 -28
-10z"/>
<path d="M8165 929 c-4 -6 -5 -12 -2 -15 2 -3 7 2 10 11 7 17 1 20 -8 4z"/>
<path d="M3118 913 c7 -3 16 -2 19 1 4 3 -2 6 -13 5 -11 0 -14 -3 -6 -6z"/>
<path d="M3150 906 c0 -7 161 -58 167 -53 2 3 -24 14 -59 25 -99 31 -108 34
-108 28z"/>
<path d="M7095 895 c-40 -18 -16 -19 26 0 19 8 27 14 19 14 -8 0 -28 -6 -45
-14z"/>
<path d="M7906 864 c-4 -14 -5 -28 -3 -31 3 -2 8 8 11 23 4 14 5 28 3 31 -3 2
-8 -8 -11 -23z"/>
<path d="M7576 865 c-3 -8 -1 -15 3 -15 5 0 11 7 15 15 3 8 1 15 -3 15 -5 0
-11 -7 -15 -15z"/>
<path d="M6985 863 c-11 -3 -24 -10 -30 -15 -7 -7 -2 -8 15 -3 52 15 64 30 15
18z"/>
<path d="M8132 845 c-17 -37 -14 -45 4 -12 9 16 14 31 11 33 -2 2 -9 -7 -15
-21z"/>
<path d="M2600 850 c0 -9 59 -44 65 -38 1 2 -13 13 -31 25 -19 12 -34 18 -34
13z"/>
<path d="M7517 825 c-20 -14 -37 -28 -37 -31 0 -2 18 8 40 22 35 23 47 34 37
34 -1 0 -19 -11 -40 -25z"/>
<path d="M3424 819 c33 -11 61 -17 63 -15 5 5 -100 37 -114 35 -4 -1 19 -10
51 -20z"/>
<path d="M6895 830 c-13 -5 -14 -9 -5 -9 8 0 24 4 35 9 13 5 14 9 5 9 -8 0
-24 -4 -35 -9z"/>
<path d="M6850 820 c-13 -8 -12 -10 3 -10 9 0 17 5 17 10 0 12 -1 12 -20 0z"/>
<path d="M2680 801 c0 -10 31 -31 45 -31 11 0 -5 20 -26 30 -12 7 -19 7 -19 1z"/>
<path d="M3545 785 c63 -18 81 -18 35 0 -19 7 -46 14 -60 14 -14 0 -4 -6 25
-14z"/>
<path d="M6750 790 c-12 -8 -11 -10 7 -10 12 0 25 5 28 10 8 13 -15 13 -35 0z"/>
<path d="M7438 774 c-38 -20 -36 -28 2 -9 17 9 30 18 30 20 0 7 -1 6 -32 -11z"/>
<path d="M7876 773 c-6 -14 -5 -15 5 -6 7 7 10 15 7 18 -3 3 -9 -2 -12 -12z"/>
<path d="M6680 770 c-20 -6 -21 -8 -5 -8 11 0 29 3 40 8 25 11 -1 11 -35 0z"/>
<path d="M8097 773 c-4 -3 -7 -11 -7 -17 0 -6 5 -5 12 2 6 6 9 14 7 17 -3 3
-9 2 -12 -2z"/>
<path d="M6567 748 c-43 -11 -76 -22 -74 -24 6 -7 140 25 150 35 6 6 9 11 7
10 -3 -1 -40 -10 -83 -21z"/>
<path d="M3675 750 c11 -5 29 -9 40 -9 l20 0 -20 9 c-11 5 -29 9 -40 9 l-20 0
20 -9z"/>
<path d="M7376 735 c-11 -8 -15 -15 -9 -15 6 0 16 7 23 15 16 19 11 19 -14 0z"/>
<path d="M7860 724 c-6 -16 -16 -42 -22 -57 -6 -15 -9 -30 -6 -33 3 -2 15 21
26 53 12 31 19 59 17 61 -2 3 -9 -8 -15 -24z"/>
<path d="M2790 731 c0 -5 11 -12 25 -15 14 -4 25 -11 25 -16 0 -6 6 -10 14
-10 8 0 32 -10 52 -22 21 -12 34 -17 30 -10 -10 17 -146 85 -146 73z"/>
<path d="M3760 730 c14 -4 34 -8 45 -8 l20 -1 -20 9 c-11 5 -31 8 -45 8 l-25
0 25 -8z"/>
<path d="M8076 723 c-6 -14 -5 -15 5 -6 7 7 10 15 7 18 -3 3 -9 -2 -12 -12z"/>
<path d="M3850 710 c34 -11 60 -11 35 0 -11 5 -29 8 -40 8 -16 0 -15 -2 5 -8z"/>
<path d="M6415 710 c-27 -7 -28 -8 -5 -8 14 0 34 3 45 8 25 11 2 11 -40 0z"/>
<path d="M7325 710 c-3 -5 -25 -19 -48 -30 -23 -10 -34 -19 -25 -20 9 0 20 5
23 10 3 6 13 10 21 10 8 0 24 9 36 20 12 11 17 20 10 20 -6 0 -14 -4 -17 -10z"/>
<path d="M3938 693 c7 -3 16 -2 19 1 4 3 -2 6 -13 5 -11 0 -14 -3 -6 -6z"/>
<path d="M6358 693 c7 -3 16 -2 19 1 4 3 -2 6 -13 5 -11 0 -14 -3 -6 -6z"/>
<path d="M3983 683 c9 -2 23 -2 30 0 6 3 -1 5 -18 5 -16 0 -22 -2 -12 -5z"/>
<path d="M6308 683 c7 -3 16 -2 19 1 4 3 -2 6 -13 5 -11 0 -14 -3 -6 -6z"/>
<path d="M4055 670 c17 -4 41 -8 55 -8 l25 0 -25 8 c-14 4 -38 8 -55 8 l-30 0
30 -8z"/>
<path d="M6195 670 l-30 -8 35 0 c19 0 49 4 65 8 l30 8 -35 0 c-19 0 -48 -4
-65 -8z"/>
<path d="M8032 648 c-11 -18 -34 -52 -52 -75 -24 -33 -28 -43 -16 -43 9 0 16
6 16 13 0 8 13 32 28 53 32 44 55 84 48 84 -2 0 -13 -15 -24 -32z"/>
<path d="M4151 656 c2 -2 22 -6 44 -9 27 -4 35 -3 25 3 -14 9 -79 15 -69 6z"/>
<path d="M6075 650 c-17 -7 -15 -9 10 -8 17 0 41 4 55 8 23 7 22 8 -10 8 -19
0 -44 -3 -55 -8z"/>
<path d="M2950 646 c0 -2 7 -7 16 -10 8 -3 12 -2 9 4 -6 10 -25 14 -25 6z"/>
<path d="M7173 627 c-48 -25 -55 -37 -18 -29 14 2 25 8 25 13 0 5 12 15 28 23
42 23 12 17 -35 -7z"/>
<path d="M4300 629 c25 -4 61 -7 80 -7 32 0 32 1 -10 9 -25 4 -61 7 -80 7 -32
0 -32 -1 10 -9z"/>
<path d="M5945 630 l-30 -8 35 0 c19 0 46 4 60 8 24 8 24 8 -5 8 -16 0 -43 -4
-60 -8z"/>
<path d="M5835 619 c-102 -13 -112 -19 -20 -13 44 3 84 10 90 15 5 5 7 8 5 8
-3 -1 -36 -5 -75 -10z"/>
<path d="M3043 600 c48 -26 62 -26 19 0 -18 11 -38 20 -45 20 -6 0 5 -9 26
-20z"/>
<path d="M4465 609 c22 -4 58 -8 80 -7 39 1 39 1 -10 8 -27 5 -63 8 -80 8 -26
0 -24 -1 10 -9z"/>
<path d="M7815 604 c-4 -10 -11 -27 -16 -36 -5 -10 -9 -26 -8 -35 0 -14 2 -15
6 -3 2 8 12 30 20 48 8 19 12 36 9 39 -3 3 -8 -3 -11 -13z"/>
<path d="M5635 599 c-22 -4 -74 -9 -115 -10 -49 -2 -61 -4 -35 -7 56 -5 205 8
205 19 0 10 1 10 -55 -2z"/>
<path d="M4620 594 c36 -8 100 -9 100 -2 0 5 -26 7 -57 7 -32 -1 -51 -3 -43
-5z"/>
<path d="M4763 583 c20 -2 54 -2 75 0 20 2 3 4 -38 4 -41 0 -58 -2 -37 -4z"/>
<path d="M4930 578 c0 -5 116 -8 257 -8 141 0 253 3 250 6 -9 10 -507 11 -507
2z"/>
<path d="M7043 564 c-29 -13 -53 -26 -53 -28 0 -8 62 16 95 36 41 25 21 21
-42 -8z"/>
<path d="M3100 574 c0 -3 14 -10 30 -15 17 -6 30 -15 30 -20 0 -5 10 -9 23 -9
17 1 12 6 -23 25 -46 25 -60 29 -60 19z"/>
<path d="M3230 515 c14 -8 30 -14 35 -14 6 0 -1 6 -15 14 -14 8 -29 14 -35 14
-5 0 1 -6 15 -14z"/>
<path d="M6935 515 c-25 -12 -26 -14 -5 -9 14 4 29 10 35 15 12 12 5 11 -30
-6z"/>
<path d="M6840 475 c-25 -13 -40 -24 -34 -25 13 0 94 39 94 45 0 9 -15 4 -60
-20z"/>
<path d="M7889 464 c-43 -45 -95 -77 -110 -69 -6 4 -14 17 -19 29 l-9 21 0
-22 c-1 -13 8 -27 20 -33 17 -10 27 -7 57 13 43 28 105 87 100 93 -3 2 -20
-12 -39 -32z"/>
<path d="M3315 477 c25 -18 87 -39 93 -32 3 2 -4 7 -14 10 -10 4 -34 13 -52
21 -41 18 -52 18 -27 1z"/>
<path d="M7767 483 c-4 -3 -7 -13 -7 -22 1 -13 3 -13 11 2 11 19 8 33 -4 20z"/>
<path d="M6709 428 c-8 -4 -39 -16 -69 -27 -30 -11 -46 -20 -35 -20 11 -1 33
6 49 14 15 8 33 15 40 15 6 1 25 7 41 14 23 11 25 14 9 13 -11 -1 -27 -4 -35
-9z"/>
<path d="M3485 410 c22 -11 49 -19 60 -19 13 0 7 5 -15 13 -62 23 -86 26 -45
6z"/>
<path d="M3615 368 c11 -7 29 -13 40 -15 16 -2 17 -1 5 6 -8 5 -26 12 -40 15
-23 6 -24 6 -5 -6z"/>
<path d="M6515 360 c-18 -8 -17 -9 7 -9 15 -1 30 4 33 9 7 12 -12 12 -40 0z"/>
<path d="M3711 337 c10 -11 99 -36 99 -27 0 4 -16 11 -36 14 -19 4 -43 10 -52
13 -9 3 -14 3 -11 0z"/>
<path d="M6400 324 l-45 -14 40 6 c22 3 47 10 55 15 21 12 3 10 -50 -7z"/>
<path d="M3830 302 c29 -18 352 -92 339 -78 -4 4 -19 9 -35 12 -16 2 -85 18
-154 35 -69 17 -134 33 -145 35 -16 4 -17 3 -5 -4z"/>
<path d="M6275 290 c-13 -5 -14 -9 -5 -9 8 0 24 4 35 9 13 5 14 9 5 9 -8 0
-24 -4 -35 -9z"/>
<path d="M6195 270 c-25 -11 1 -11 35 0 20 6 21 8 5 8 -11 0 -29 -3 -40 -8z"/>
<path d="M6062 243 c-40 -9 -71 -18 -68 -20 6 -6 128 17 146 28 19 11 10 10
-78 -8z"/>
<path d="M5895 210 c-42 -11 -1 -11 50 -1 34 7 35 9 10 9 -16 0 -43 -4 -60 -8z"/>
<path d="M4260 200 c14 -4 34 -8 45 -8 16 0 15 2 -5 8 -14 4 -34 8 -45 8 -16
0 -15 -2 5 -8z"/>
<path d="M5828 193 c6 -2 18 -2 25 0 6 3 1 5 -13 5 -14 0 -19 -2 -12 -5z"/>
<path d="M4385 179 c51 -10 92 -10 50 1 -16 4 -43 8 -60 8 -25 0 -24 -2 10 -9z"/>
<path d="M5773 183 c9 -2 23 -2 30 0 6 3 -1 5 -18 5 -16 0 -22 -2 -12 -5z"/>
<path d="M5630 170 c-25 -4 -96 -11 -158 -15 -63 -4 -110 -11 -105 -16 4 -4
37 -4 73 1 36 4 107 11 159 15 91 6 174 25 106 23 -16 0 -50 -4 -75 -8z"/>
<path d="M4493 163 c15 -2 39 -2 55 0 15 2 2 4 -28 4 -30 0 -43 -2 -27 -4z"/>
<path d="M4640 150 c104 -17 444 -31 565 -23 111 7 98 8 -170 14 -159 4 -326
9 -370 12 -69 5 -73 5 -25 -3z"/>
</g>
</svg>
