<?xml version="1.0" standalone="no"?>
<!DOCTYPE svg PUBLIC "-//W3C//DTD SVG 20010904//EN"
 "http://www.w3.org/TR/2001/REC-SVG-20010904/DTD/svg10.dtd">
<svg version="1.0" xmlns="http://www.w3.org/2000/svg"
 width="559.000000pt" height="447.000000pt" viewBox="0 0 559.000000 447.000000"
 preserveAspectRatio="xMidYMid meet">

<g transform="translate(0.000000,447.000000) scale(0.100000,-0.100000)"
fill="#000000" stroke="none">
<path d="M1648 2469 c-49 -14 -117 -74 -139 -123 -80 -177 102 -371 281 -300
38 15 42 15 59 0 23 -21 54 -20 74 2 22 24 22 50 0 74 -9 10 -13 21 -8 26 4 4
9 3 11 -3 14 -37 49 -77 82 -94 32 -16 56 -20 123 -17 46 1 92 6 102 11 11 4
23 3 30 -4 31 -31 87 3 87 55 l0 29 23 -27 c55 -66 139 -85 212 -48 38 20 38
20 52 0 8 -11 24 -20 37 -20 34 0 56 30 56 78 0 23 3 42 8 42 4 0 27 -25 51
-55 51 -64 83 -77 113 -47 l20 20 35 -20 c43 -26 107 -20 153 12 26 19 34 20
41 9 5 -8 9 -17 9 -21 0 -14 48 -20 69 -8 18 9 21 20 21 84 0 98 14 136 49
136 43 0 51 -17 51 -105 0 -95 16 -128 58 -123 18 2 32 13 42 34 l16 31 36
-30 c51 -41 118 -47 177 -18 23 12 44 28 48 36 13 34 23 10 23 -53 0 -45 5
-75 16 -90 33 -48 94 -11 94 57 l0 40 35 -6 c77 -12 162 46 186 127 23 77 -24
164 -106 196 -68 26 -159 -1 -192 -57 -21 -35 -26 -36 -43 -4 -45 85 -186 94
-257 18 l-33 -34 -26 31 c-36 42 -74 60 -129 60 l-45 0 0 38 c0 46 -8 59 -41
67 -21 5 -31 1 -47 -20 l-21 -27 -22 21 c-29 27 -79 36 -123 21 -40 -13 -86
-62 -86 -91 0 -15 -5 -17 -29 -13 -23 5 -43 -2 -88 -30 l-58 -36 -3 72 c-2 60
-6 76 -23 91 -48 39 -89 3 -89 -77 l0 -54 -30 14 c-75 38 -167 21 -215 -39
l-25 -32 -1 35 c-1 19 -1 48 0 63 3 35 -24 67 -55 67 -29 0 -58 -41 -49 -70 6
-20 -9 -28 -20 -10 -10 16 -44 11 -65 -10 -17 -17 -20 -33 -20 -99 0 -86 -12
-111 -54 -111 -42 0 -56 29 -56 113 0 64 -3 80 -20 97 -24 24 -47 25 -71 4
-16 -15 -19 -14 -32 13 -44 83 -161 129 -259 102z m148 -44 c98 -49 136 -161
87 -258 -12 -24 -11 -30 8 -56 34 -46 5 -70 -37 -30 -21 19 -24 20 -46 5 -60
-39 -159 -29 -220 22 -113 95 -75 280 67 330 49 17 88 13 141 -13z m904 -81
l5 -102 78 50 c71 46 107 56 107 28 0 -9 -61 -58 -99 -80 -11 -6 -1 -24 44
-79 35 -43 55 -77 51 -86 -11 -29 -25 -20 -86 55 -24 30 -47 59 -51 63 -4 5
-16 6 -28 2 -18 -5 -21 -14 -21 -66 0 -45 -4 -61 -16 -66 -9 -3 -20 0 -25 8
-10 16 -12 339 -3 364 4 9 14 15 23 13 13 -3 17 -22 21 -104z m401 80 c36 -33
16 -67 -23 -40 -30 22 -61 20 -83 -4 -24 -26 -13 -67 23 -81 79 -32 90 -39
106 -74 33 -69 -9 -149 -86 -161 -55 -9 -136 42 -109 69 8 8 18 7 40 -6 59
-35 121 -8 121 51 0 34 -21 55 -72 71 -21 7 -47 24 -58 38 -22 28 -26 82 -10
113 26 48 110 61 151 24z m117 10 c5 -9 7 -39 4 -67 -4 -46 -3 -50 14 -42 42
18 98 16 132 -5 44 -27 62 -74 62 -162 0 -79 -9 -104 -34 -95 -13 5 -16 23
-16 94 0 105 -17 133 -82 133 -54 0 -71 -30 -73 -132 -2 -78 -13 -107 -34 -94
-12 8 -16 368 -4 379 11 11 21 8 31 -9z m-900 -47 c4 -20 -25 -34 -40 -19 -15
15 -1 44 19 40 10 -2 19 -11 21 -21z m753 -33 c9 -11 22 -14 46 -9 33 6 33 6
33 -35 0 -39 -12 -52 -26 -29 -3 6 -31 22 -60 35 -39 17 -52 28 -48 39 8 20
38 19 55 -1z m-1077 -30 c3 -9 6 -49 6 -90 0 -66 3 -78 25 -99 33 -34 87 -34
120 0 22 21 25 33 25 102 0 84 9 109 34 100 14 -5 16 -26 16 -136 0 -131 -9
-163 -35 -128 -11 16 -15 16 -44 1 -50 -25 -106 -13 -150 30 -35 35 -36 39
-40 121 -1 47 0 92 3 100 7 20 32 19 40 -1z m321 -124 c0 -128 -1 -135 -20
-135 -19 0 -20 8 -23 124 -3 138 0 154 25 149 16 -3 18 -18 18 -138z m252 123
c38 -18 51 -39 35 -55 -8 -8 -18 -6 -36 6 -66 43 -146 3 -146 -74 0 -75 69
-112 142 -74 33 17 55 7 44 -21 -7 -19 -65 -45 -101 -45 -36 0 -78 23 -109 60
-34 41 -36 114 -4 155 49 62 110 79 175 48z m1110 -8 c37 -25 63 -75 63 -123
0 -36 -6 -49 -39 -85 -37 -39 -43 -42 -93 -42 -68 0 -110 28 -133 89 -21 53
-10 98 33 139 51 49 115 57 169 22z m321 -4 c39 -27 65 -92 56 -138 -9 -46
-63 -100 -110 -109 -23 -4 -49 -1 -75 9 l-39 15 0 -56 c0 -64 -10 -88 -34 -79
-14 5 -16 27 -16 145 0 128 2 142 23 173 45 69 131 86 195 40z m-985 -91 c44
-16 57 -40 37 -65 -16 -19 -39 -19 -59 -1 -30 26 -59 28 -80 7 l-20 -20 -31
38 c-16 22 -30 43 -30 47 0 5 20 21 43 35 l42 26 28 -26 c15 -14 47 -32 70
-41z m-465 28 c6 -6 25 -11 42 -10 29 1 30 -1 30 -39 0 -35 -2 -40 -20 -34
-10 3 -33 -1 -49 -9 -17 -9 -38 -16 -47 -16 -46 0 -72 71 -38 104 18 19 65 21
82 4z"/>
<path d="M1642 2380 c-51 -32 -74 -76 -69 -138 7 -99 97 -155 196 -121 36 13
38 19 11 44 -11 10 -20 24 -20 31 0 26 22 25 50 -1 l29 -27 12 40 c38 129 -96
241 -209 172z m128 -25 c33 -17 60 -61 60 -100 0 -28 -3 -29 -31 -14 -16 8
-26 7 -45 -6 -25 -16 -33 -58 -14 -70 26 -16 7 -27 -37 -22 -65 7 -103 48
-103 113 0 39 5 51 34 80 39 39 86 45 136 19z"/>
<path d="M3545 2268 c-15 -14 -28 -38 -32 -60 -5 -32 -1 -41 25 -68 50 -50
121 -38 148 25 36 88 -69 165 -141 103z m97 -25 c22 -20 23 -61 1 -85 -43 -48
-122 8 -92 65 22 41 59 49 91 20z"/>
<path d="M3856 2264 c-19 -19 -26 -37 -26 -63 1 -114 159 -122 177 -9 5 32 1
41 -25 68 -40 40 -88 41 -126 4z m110 -30 c22 -33 9 -75 -28 -88 -36 -13 -78
14 -78 51 0 61 74 87 106 37z"/>
</g>
</svg>
